# xmcd CD database file
#
# Track frame offsets:
#	150
#	2406
#	15861
#	33275
#	49647
#	60341
#	83673
#	100909
#	120350
#	142110
#	153402
#	172932
#	207027
#	222401
#	251309
#	264796
#	293940
#	314803
#
# Disc length: 4483 seconds
#
# Revision: 0
# Processed by: cddbd v1.5.2PL0 Copyright (c) Steve Scherf et al.
# Submitted via: CDex 1.51
#
DISCID=e0118112
DTITLE=Louis Armstrong - Live At The 1958 Monterey Jazz Festival 
DYEAR=2007
DGENRE=Jazz
TTITLE0=Introduction By Dizzy Gillespie
TTITLE1=When It's Sleepy Time Down South
TTITLE2=(Back Home Again In) Indiana
TTITLE3=Blueberry Hill
TTITLE4=Tiger Rag
TTITLE5=Now You Has Jazz
TTITLE6=High Society Calypso
TTITLE7=Bucket's Got A Hole In It
TTITLE8=Perdido
TTITLE9=Autumn Leaves
TTITLE10=After You've Gone
TTITLE11=These Foolish Things
TTITLE12=Mack The Knife
TTITLE13=Stompin' At The Savoy
TTITLE14=Undecided
TTITLE15=St. Louis Blues
TTITLE16=That's My Desire
TTITLE17=When The Saints Go Marching In
EXTD=YEAR: 2007
EXTT0=
EXTT1=
EXTT2=
EXTT3=
EXTT4=
EXTT5=
EXTT6=
EXTT7=
EXTT8=
EXTT9=
EXTT10=
EXTT11=
EXTT12=
EXTT13=
EXTT14=
EXTT15=
EXTT16=
EXTT17=
PLAYORDER=
